# xmcd
#
# Track frame offsets:
#	150
#	16320
#	30893
#	51086
#	68487
#	85613
#	108060
#	122977
#	141876
#	161912
#	179917
#	196400
#
# Disc length: 2812 seconds
#
# Revision: 1
# Processed by: cddbd v1.5.2PL0 Copyright (c) Steve Scherf et al.
# Submitted via: audiograbber 1.83.01
#
DISCID=9b0afa0c
DTITLE=Nick P. - Herzerfüllt
DYEAR=2009
DGENRE=Schlager
TTITLE0=Briefe an den Mond
TTITLE1=Ich hab Sehnsucht
TTITLE2=Der Himmel wartet auf dich
TTITLE3=Das Licht der Sonne
TTITLE4=Durch die Hölle
TTITLE5=Hinter dem Horizont
TTITLE6=Werwolf
TTITLE7=Das offene Fenster
TTITLE8=Eine Sommernacht
TTITLE9=Der Sonne entgegen
TTITLE10=Summerwine and Coconut
TTITLE11=Ein Stern, der deinen Namen trägt
EXTD=CD 3
EXTT0=
EXTT1=
EXTT2=
EXTT3=
EXTT4=
EXTT5=
EXTT6=
EXTT7=
EXTT8=
EXTT9=(Album Version)
EXTT10=
EXTT11=(Accoustic version)
PLAYORDER=
